<svg width="126" height="109" viewBox="0 0 126 109" fill="none" xmlns="http://www.w3.org/2000/svg">
<path d="M98 33.9691C97.9773 33.5451 97.8067 33.143 97.5184 32.834C97.2301 32.5249 96.8428 32.3288 96.425 32.2805L92.1106 31.5755C91.9165 31.5434 91.7379 31.4487 91.6015 31.3058C91.465 31.1628 91.378 30.9791 91.3534 30.7822C91.2709 30.2471 91.1851 29.6916 91.0673 29.1649C91.0294 28.9734 91.0516 28.7747 91.1309 28.5965C91.2103 28.4183 91.3428 28.2696 91.5099 28.1712L95.343 26.0222C95.7236 25.8263 96.0197 25.4961 96.1748 25.0942C96.3299 24.6923 96.3333 24.2469 96.1844 23.8427L95.5197 21.991C95.3739 21.5854 95.0851 21.2483 94.7085 21.0443C94.3319 20.8402 93.894 20.7836 93.4786 20.8851L89.1793 21.7345C88.9871 21.7692 88.7889 21.7417 88.6131 21.656C88.4372 21.5703 88.2927 21.4307 88.2 21.2572C87.9493 20.7832 87.6767 20.3007 87.3923 19.8268C87.289 19.6579 87.2406 19.4607 87.2539 19.2627C87.2672 19.0647 87.3415 18.8759 87.4664 18.7226L90.3269 15.3862C90.6175 15.0712 90.7844 14.6602 90.7965 14.2299C90.8086 13.7997 90.665 13.3798 90.3926 13.0487L89.144 11.5351C88.8724 11.2029 88.4883 10.9842 88.0662 10.9215C87.644 10.8587 87.2139 10.9563 86.8589 11.1953L83.0947 13.4768C82.9278 13.5777 82.7332 13.6218 82.5396 13.6026C82.346 13.5833 82.1636 13.5017 82.0195 13.3698C81.6039 13.0011 81.1781 12.6461 80.7793 12.3182C80.6263 12.1963 80.5157 12.0283 80.4636 11.8386C80.4116 11.6489 80.4208 11.4474 80.4899 11.2633L82.0481 7.11829C82.2178 6.72279 82.2377 6.27814 82.104 5.86882C81.9702 5.4595 81.6923 5.11401 81.3228 4.89799L79.625 3.89742C79.2553 3.6822 78.82 3.61224 78.4024 3.70095C77.9847 3.78966 77.6142 4.03079 77.3618 4.37817L74.6106 7.86744C74.5116 8.01911 74.3634 8.13123 74.1915 8.18455C74.0195 8.23788 73.8345 8.22906 73.6683 8.15963C73.5656 8.11716 72.6974 7.75872 72.0226 7.53109C71.8375 7.47019 71.6766 7.3511 71.5634 7.19124C71.4501 7.03138 71.3905 6.83914 71.3933 6.64263L71.4589 2.21393C71.4823 1.78149 71.3488 1.35526 71.0834 1.01504C70.8179 0.674821 70.4388 0.443955 70.0168 0.365671L68.0902 0.0259167C67.6704 -0.0472986 67.2385 0.0358301 66.8749 0.259855C66.5112 0.483881 66.2405 0.833568 66.113 1.24394L64.6827 5.45859C64.6177 5.64568 64.4951 5.80684 64.3328 5.91843C64.1705 6.03002 63.977 6.08617 63.7808 6.07864H62.1402C61.9454 6.08268 61.7544 6.02459 61.5943 5.91265C61.4342 5.80071 61.3131 5.64063 61.2483 5.45519L59.8248 1.26432C59.6995 0.850956 59.4293 0.497858 59.0648 0.271149C58.7002 0.0444397 58.2663 -0.0403309 57.8442 0.0327119L55.9142 0.372466C55.495 0.450132 55.1179 0.678738 54.853 1.01584C54.5881 1.35294 54.4534 1.77564 54.4738 2.20544L54.5411 6.64943C54.5425 6.84888 54.48 7.04344 54.3629 7.20415C54.2459 7.36485 54.0806 7.48309 53.8916 7.54128C53.5063 7.69247 52.67 8.01524 52.2897 8.15793C51.9531 8.28025 51.5863 8.14604 51.2902 7.80119L48.5541 4.40365C48.3031 4.05415 47.9329 3.81068 47.5148 3.72006C47.0967 3.62943 46.6602 3.69804 46.2892 3.91271L44.5964 4.90309C44.2229 5.11951 43.942 5.46783 43.8078 5.88093C43.6736 6.29403 43.6955 6.74266 43.8695 7.14037L45.426 11.2752C45.4939 11.4596 45.5028 11.6609 45.4515 11.8508C45.4002 12.0406 45.2912 12.2094 45.1399 12.3335C44.731 12.6733 44.312 13.013 43.8947 13.3901C43.7514 13.521 43.5704 13.6022 43.3782 13.6217C43.1859 13.6413 42.9925 13.5982 42.8262 13.4989L39.1058 11.1733C38.7485 10.9386 38.3188 10.8437 37.8971 10.9063C37.4755 10.9688 37.0909 11.1846 36.8156 11.513L35.5721 13.0232C35.2959 13.352 35.1495 13.7721 35.161 14.2031C35.1725 14.6341 35.3411 15.0457 35.6344 15.359L38.5084 18.692C38.636 18.8422 38.7122 19.0299 38.7259 19.2272C38.7395 19.4246 38.6898 19.6211 38.5842 19.7877C38.2964 20.2498 38.0221 20.7356 37.7731 21.2215C37.6799 21.3963 37.5343 21.5367 37.3572 21.6228C37.1801 21.7089 36.9805 21.7361 36.787 21.7005L32.4945 20.863C32.0789 20.7618 31.6409 20.8186 31.2641 21.0226C30.8873 21.2265 30.5981 21.5634 30.4517 21.9689L29.7786 23.8172C29.6299 24.222 29.6333 24.6677 29.7884 25.0701C29.9435 25.4724 30.2394 25.8033 30.62 26.0001L34.4532 28.1491C34.6255 28.2451 34.7623 28.3952 34.8427 28.5766C34.9232 28.758 34.9429 28.961 34.8991 29.1547L34.8587 29.3705C34.7712 29.8444 34.6904 30.2929 34.613 30.7703C34.5862 30.9648 34.4993 31.1458 34.3645 31.2873C34.2297 31.4289 34.054 31.5238 33.8625 31.5585L29.5397 32.2635C29.1169 32.3159 28.7275 32.5219 28.4442 32.8429C28.1609 33.164 28.003 33.5782 28 34.0081V35.9753C27.9976 36.4069 28.1538 36.8241 28.4386 37.1461C28.7233 37.4681 29.1163 37.672 29.5414 37.7183L33.8625 38.4215C34.0567 38.4534 34.2354 38.5479 34.3719 38.691C34.5084 38.834 34.5954 39.0178 34.6197 39.2149C34.7022 39.7517 34.788 40.3055 34.9058 40.8321C34.9437 41.0236 34.9215 41.2224 34.8422 41.4005C34.7628 41.5787 34.6304 41.7274 34.4632 41.8259L30.6318 43.9782C30.2511 44.1741 29.9551 44.5044 29.8 44.9062C29.6449 45.3081 29.6414 45.7535 29.7904 46.1577L30.4635 48.0094C30.6096 48.4148 30.8985 48.7516 31.275 48.9556C31.6515 49.1596 32.0892 49.2165 32.5046 49.1153L36.8039 48.2744C36.9961 48.2392 37.1945 48.2664 37.3705 48.3522C37.5465 48.438 37.6909 48.5779 37.7832 48.7518C38.0356 49.2274 38.3065 49.7082 38.5909 50.1821C38.6947 50.3508 38.7433 50.5482 38.7301 50.7463C38.7168 50.9444 38.6422 51.1333 38.5169 51.2863L35.6563 54.621C35.3623 54.9336 35.1915 55.3438 35.176 55.7746C35.1605 56.2053 35.3014 56.627 35.5721 56.9602L36.819 58.4738C37.0904 58.8064 37.4745 59.0253 37.8967 59.0881C38.319 59.1508 38.7493 59.053 39.1041 58.8136L42.8683 56.5321C43.0352 56.4312 43.2298 56.3871 43.4234 56.4064C43.617 56.4256 43.7994 56.5073 43.9435 56.6392C44.3608 57.0078 44.7849 57.3628 45.1837 57.6907C45.3366 57.8128 45.4472 57.9807 45.4995 58.1703C45.5518 58.3599 45.5432 58.5613 45.4748 58.7456L43.9149 62.8906C43.7452 63.2861 43.7254 63.7308 43.8591 64.1401C43.9928 64.5494 44.2707 64.8949 44.6402 65.1109L46.3414 66.103C46.7109 66.3184 47.1461 66.3886 47.5637 66.3002C47.9813 66.2119 48.3519 65.9711 48.6046 65.624L51.3894 62.167C51.625 61.8731 51.9952 61.7423 52.2695 61.8544C52.8551 62.099 53.2471 62.2366 53.9421 62.471C54.1272 62.5321 54.2882 62.6512 54.4017 62.811C54.5152 62.9707 54.5752 63.1629 54.5731 63.3595L54.5058 67.7848C54.4831 68.2171 54.6169 68.6429 54.8822 68.983C55.1475 69.3231 55.5263 69.5541 55.9479 69.6331L57.8745 69.9728C58.2944 70.0468 58.7266 69.964 59.0904 69.7398C59.4542 69.5157 59.7248 69.1656 59.8517 68.7548L61.282 64.5469C61.3467 64.3597 61.4693 64.1984 61.6317 64.0868C61.794 63.9751 61.9876 63.9191 62.1839 63.9269H63.8245C64.0193 63.9226 64.2105 63.9806 64.3706 64.0925C64.5308 64.2045 64.6518 64.3648 64.7164 64.5503L66.1416 68.7412C66.252 69.105 66.475 69.4236 66.7778 69.6501C67.0806 69.8766 67.4474 69.9993 67.8243 70C67.9247 70.0002 68.025 69.9911 68.1238 69.9728L70.0539 69.6331C70.4731 69.5554 70.8502 69.3268 71.1151 68.9897C71.38 68.6526 71.5147 68.2299 71.4942 67.8001L71.4269 63.3561C71.4256 63.1603 71.4861 62.9692 71.5995 62.8104C71.713 62.6516 71.8735 62.5333 72.0579 62.4727C72.7041 62.2536 73.1584 62.0769 73.5572 61.9206L73.6582 61.8816C74.1798 61.6998 74.4322 61.9206 74.5786 62.1041L77.3971 65.6087C77.6497 65.9553 78.0201 66.1958 78.4373 66.2842C78.8545 66.3726 79.2893 66.3026 79.6587 66.0877L81.3531 65.0973C81.7238 64.8812 82.0026 64.5348 82.1364 64.1244C82.2701 63.7139 82.2495 63.268 82.0784 62.872L80.5236 58.7371C80.455 58.5529 80.4455 58.3516 80.4965 58.1616C80.5476 57.9717 80.6565 57.8028 80.8079 57.6788C81.2168 57.3391 81.6358 56.9993 82.0531 56.6222C82.1973 56.4909 82.3795 56.4099 82.5727 56.3909C82.766 56.3719 82.9601 56.4161 83.1267 56.5169L86.8942 58.7932C87.2514 59.0282 87.6812 59.1233 88.103 59.0607C88.5247 58.9982 88.9093 58.7822 89.1844 58.4535L90.4296 56.9415C90.7058 56.6127 90.8522 56.1926 90.8407 55.7616C90.8292 55.3306 90.6606 54.9191 90.3673 54.6057L87.4966 51.2642C87.3691 51.1141 87.2929 50.9264 87.2792 50.729C87.2656 50.5317 87.3153 50.3352 87.4209 50.1685C87.7087 49.7082 87.9829 49.2223 88.232 48.7348C88.3255 48.5604 88.4712 48.4202 88.6482 48.3342C88.8253 48.2482 89.0247 48.2207 89.218 48.2557L93.5055 49.1C93.9211 49.2013 94.3591 49.1445 94.7359 48.9405C95.1127 48.7365 95.4019 48.3996 95.5483 47.9941L96.213 46.1459C96.3617 45.7413 96.3581 45.2958 96.203 44.8938C96.048 44.4917 95.7521 44.1611 95.3716 43.9646L91.5351 41.8123C91.3651 41.7153 91.2306 41.5656 91.1515 41.3854C91.0724 41.2051 91.0529 41.004 91.0959 40.8117L91.1363 40.596C91.2238 40.122 91.3046 39.6735 91.382 39.1962C91.4087 39.0017 91.4957 38.8207 91.6305 38.6791C91.7653 38.5375 91.941 38.4426 92.1325 38.408L96.4553 37.7047C96.8791 37.653 97.2697 37.4472 97.5541 37.1258C97.8384 36.8043 97.9969 36.3893 98 35.9583V33.9691V33.9691ZM50.4724 49.9375C50.2627 50.3056 49.9695 50.6182 49.6168 50.8497C49.2642 51.0812 48.8622 51.2248 48.4438 51.269C48.0255 51.3131 47.6027 51.2563 47.2103 51.1034C46.8179 50.9505 46.4671 50.7058 46.1866 50.3894C42.3957 46.1578 40.3026 40.652 40.3156 34.9465C40.3287 29.241 42.447 23.7451 46.2572 19.5312C46.5392 19.2149 46.8916 18.9708 47.2853 18.8189C47.6791 18.6671 48.1029 18.6119 48.522 18.6578C48.941 18.7038 49.3432 18.8496 49.6955 19.0832C50.0477 19.3169 50.34 19.6317 50.5481 20.0018L58.2296 33.6514C58.4602 34.0585 58.5816 34.5193 58.5816 34.9883C58.5816 35.4573 58.4602 35.9182 58.2296 36.3253L50.4724 49.9375ZM63 57.9523C61.3987 57.9527 59.8019 57.7819 58.2363 57.4427C57.8285 57.3507 57.4478 57.163 57.1252 56.8948C56.8026 56.6266 56.5471 56.2854 56.3795 55.8989C56.2118 55.5125 56.1367 55.0915 56.1603 54.6703C56.1838 54.2491 56.3053 53.8393 56.5149 53.4744L64.2553 39.8842C64.4881 39.4747 64.8239 39.1345 65.2287 38.8979C65.6334 38.6614 66.0929 38.5369 66.5606 38.5371H82.0649C82.4825 38.5364 82.8945 38.6351 83.2673 38.8251C83.6401 39.0151 83.9633 39.2911 84.2108 39.6308C84.4582 39.9704 84.6229 40.3642 84.6916 40.7801C84.7602 41.196 84.7308 41.6223 84.6058 42.0246C81.6627 51.2524 73.0962 57.9523 63 57.9523ZM64.2637 30.1095L56.6058 16.4955C56.3982 16.1299 56.2788 15.7202 56.2572 15.2994C56.2355 14.8786 56.3122 14.4586 56.4811 14.0732C56.65 13.6879 56.9063 13.3481 57.2294 13.0813C57.5524 12.8145 57.9331 12.6282 58.3406 12.5374C59.8727 12.2114 61.4343 12.0474 63 12.0481C73.0962 12.0481 81.6627 18.7481 84.6007 27.9809C84.7258 28.3832 84.7551 28.8096 84.6865 29.2255C84.6179 29.6414 84.4532 30.0351 84.2057 30.3747C83.9583 30.7144 83.6351 30.9904 83.2622 31.1804C82.8894 31.3704 82.4775 31.4691 82.0599 31.4685H66.5791C66.1085 31.4694 65.6461 31.3441 65.2392 31.1053C64.8324 30.8665 64.4957 30.5228 64.2637 30.1095Z" fill="white"/>
<path d="M28.544 86.928C28.8213 86.928 29.0347 87.0667 29.184 87.344C29.3547 87.6 29.44 87.9307 29.44 88.336C29.44 88.8267 29.3653 89.2107 29.216 89.488C29.0667 89.7653 28.832 90.0107 28.512 90.224C27.2533 91.056 25.248 92.4213 22.496 94.32C21.664 98.736 20.5867 102.213 19.264 104.752C17.9413 107.291 16.2667 108.56 14.24 108.56C13.152 108.56 12.2667 108.219 11.584 107.536C10.9013 106.875 10.56 106 10.56 104.912C10.56 103.909 10.784 102.896 11.232 101.872C11.68 100.848 12.512 99.664 13.728 98.32C14.9653 96.976 16.704 95.44 18.944 93.712L19.04 93.104C17.3547 93.808 15.7013 94.16 14.08 94.16C11.6907 94.16 9.58933 93.7013 7.776 92.784C5.96267 91.8453 4.55467 90.5227 3.552 88.816C2.54933 87.1093 2.048 85.1253 2.048 82.864C2.048 79.7067 2.64533 76.9227 3.84 74.512C5.03467 72.08 6.67733 70.2027 8.768 68.88C10.88 67.536 13.2373 66.864 15.84 66.864C18.336 66.864 20.2027 67.4507 21.44 68.624C22.6987 69.776 23.328 71.312 23.328 73.232C23.328 74.4907 23.0933 75.504 22.624 76.272C22.176 77.0187 21.5253 77.392 20.672 77.392C20.096 77.392 19.6267 77.2533 19.264 76.976C18.9227 76.6987 18.752 76.3147 18.752 75.824C18.752 75.6107 18.7947 75.248 18.88 74.736C19.008 74.1387 19.072 73.6693 19.072 73.328C19.072 72.432 18.7947 71.7387 18.24 71.248C17.7067 70.7573 16.8 70.512 15.52 70.512C13.9627 70.512 12.512 70.96 11.168 71.856C9.84533 72.752 8.77867 74.096 7.968 75.888C7.15733 77.6587 6.752 79.792 6.752 82.288C6.752 84.848 7.44533 86.832 8.832 88.24C10.24 89.6267 12.2667 90.32 14.912 90.32C16.384 90.32 17.92 89.9893 19.52 89.328L19.968 85.424H16.704C16.1067 85.424 15.648 85.2853 15.328 85.008C15.008 84.7093 14.848 84.2293 14.848 83.568C14.848 82.9707 15.008 82.5013 15.328 82.16C15.648 81.8187 16.0747 81.648 16.608 81.648H22.592C23.0613 81.648 23.4453 81.808 23.744 82.128C24.064 82.4267 24.192 82.864 24.128 83.44C24.064 84.1227 23.8507 85.6693 23.488 88.08L23.136 90.512C24.8427 89.232 26.4 88.1227 27.808 87.184C28.0853 87.0133 28.3307 86.928 28.544 86.928ZM14.592 105.456C15.1467 105.456 15.7547 104.827 16.416 103.568C17.0773 102.309 17.696 100.283 18.272 97.488C16.6507 98.8747 15.4773 100.123 14.752 101.232C14.048 102.363 13.696 103.355 13.696 104.208C13.696 105.04 13.9947 105.456 14.592 105.456ZM41.7455 86.864C42.0228 86.864 42.2362 86.992 42.3855 87.248C42.5562 87.504 42.6415 87.856 42.6415 88.304C42.6415 89.1573 42.4388 89.8187 42.0335 90.288C41.2442 91.248 40.1242 92.1333 38.6735 92.944C37.2442 93.7547 35.7082 94.16 34.0655 94.16C31.8255 94.16 30.0868 93.552 28.8495 92.336C27.6122 91.12 26.9935 89.456 26.9935 87.344C26.9935 85.872 27.3028 84.5067 27.9215 83.248C28.5402 81.968 29.3935 80.9547 30.4815 80.208C31.5908 79.4613 32.8388 79.088 34.2255 79.088C35.4628 79.088 36.4548 79.4613 37.2015 80.208C37.9482 80.9333 38.3215 81.9253 38.3215 83.184C38.3215 84.656 37.7882 85.9253 36.7215 86.992C35.6762 88.0373 33.8948 88.8693 31.3775 89.488C31.9108 90.4693 32.9242 90.96 34.4175 90.96C35.3775 90.96 36.4655 90.6293 37.6815 89.968C38.9188 89.2853 39.9855 88.4 40.8815 87.312C41.1375 87.0133 41.4255 86.864 41.7455 86.864ZM33.6815 82.224C32.8922 82.224 32.2202 82.6827 31.6655 83.6C31.1322 84.5173 30.8655 85.6267 30.8655 86.928V86.992C32.1242 86.6933 33.1162 86.2453 33.8415 85.648C34.5668 85.0507 34.9295 84.3573 34.9295 83.568C34.9295 83.1627 34.8122 82.8427 34.5775 82.608C34.3642 82.352 34.0655 82.224 33.6815 82.224ZM43.8158 94.16C42.4931 94.16 41.4371 93.68 40.6478 92.72C39.8584 91.76 39.4638 90.5013 39.4638 88.944C39.4638 87.2373 39.8584 85.6267 40.6478 84.112C41.4371 82.576 42.4824 81.3493 43.7838 80.432C45.1064 79.4933 46.5038 79.024 47.9758 79.024C48.4451 79.024 48.7544 79.12 48.9038 79.312C49.0744 79.4827 49.2131 79.8027 49.3198 80.272C49.7678 80.1867 50.2371 80.144 50.7278 80.144C51.7731 80.144 52.2958 80.5173 52.2958 81.264C52.2958 81.712 52.1358 82.7787 51.8158 84.464C51.3251 86.9173 51.0798 88.624 51.0798 89.584C51.0798 89.904 51.1544 90.16 51.3038 90.352C51.4744 90.544 51.6878 90.64 51.9438 90.64C52.3491 90.64 52.8398 90.384 53.4158 89.872C53.9918 89.3387 54.7704 88.4853 55.7518 87.312C56.0078 87.0133 56.2958 86.864 56.6158 86.864C56.8931 86.864 57.1064 86.992 57.2558 87.248C57.4264 87.504 57.5118 87.856 57.5118 88.304C57.5118 89.1573 57.3091 89.8187 56.9038 90.288C56.0291 91.376 55.1011 92.2933 54.1198 93.04C53.1384 93.7867 52.1891 94.16 51.2718 94.16C50.5678 94.16 49.9171 93.9253 49.3198 93.456C48.7438 92.9653 48.3064 92.304 48.0078 91.472C46.8984 93.264 45.5011 94.16 43.8158 94.16ZM44.9678 90.928C45.4371 90.928 45.8851 90.6507 46.3118 90.096C46.7384 89.5413 47.0478 88.8053 47.2398 87.888L48.4238 82C47.5278 82.0213 46.6958 82.3627 45.9278 83.024C45.1811 83.664 44.5838 84.5173 44.1358 85.584C43.6878 86.6507 43.4638 87.7813 43.4638 88.976C43.4638 89.6373 43.5918 90.128 43.8478 90.448C44.1251 90.768 44.4984 90.928 44.9678 90.928ZM57.183 94.16C56.3723 94.16 55.7963 93.7333 55.455 92.88C55.135 92.0267 54.975 90.6613 54.975 88.784C54.975 86.0107 55.3697 83.376 56.159 80.88C56.351 80.2613 56.6603 79.8133 57.087 79.536C57.535 79.2373 58.1537 79.088 58.943 79.088C59.3697 79.088 59.6683 79.1413 59.839 79.248C60.0097 79.3547 60.095 79.5573 60.095 79.856C60.095 80.1973 59.935 80.9653 59.615 82.16C59.4017 83.0133 59.231 83.76 59.103 84.4C58.975 85.04 58.8683 85.8293 58.783 86.768C59.487 84.9333 60.2763 83.44 61.151 82.288C62.0257 81.136 62.879 80.3147 63.711 79.824C64.5643 79.3333 65.343 79.088 66.047 79.088C67.4337 79.088 68.127 79.7813 68.127 81.168C68.127 81.4453 68.031 82.1173 67.839 83.184C67.6683 84.0373 67.583 84.5707 67.583 84.784C67.583 85.5307 67.8497 85.904 68.383 85.904C68.9803 85.904 69.7483 85.4347 70.687 84.496C70.9643 84.2187 71.2523 84.08 71.551 84.08C71.8283 84.08 72.0417 84.208 72.191 84.464C72.3617 84.6987 72.447 85.0187 72.447 85.424C72.447 86.2133 72.2337 86.832 71.807 87.28C71.2097 87.8987 70.5057 88.432 69.695 88.88C68.9057 89.3067 68.063 89.52 67.167 89.52C66.0363 89.52 65.1723 89.232 64.575 88.656C63.999 88.08 63.711 87.3013 63.711 86.32C63.711 86 63.743 85.68 63.807 85.36C63.8497 84.9333 63.871 84.6453 63.871 84.496C63.871 84.1547 63.7537 83.984 63.519 83.984C63.199 83.984 62.7723 84.3467 62.239 85.072C61.727 85.776 61.215 86.7147 60.703 87.888C60.191 89.0613 59.775 90.2987 59.455 91.6C59.2203 92.6027 58.943 93.2853 58.623 93.648C58.3243 93.9893 57.8443 94.16 57.183 94.16ZM85.7935 84.176C86.0708 84.176 86.2842 84.3147 86.4335 84.592C86.5828 84.8693 86.6575 85.2213 86.6575 85.648C86.6575 86.672 86.3482 87.28 85.7295 87.472C84.4495 87.92 83.0415 88.176 81.5055 88.24C81.1002 90.032 80.3002 91.472 79.1055 92.56C77.9108 93.6267 76.5562 94.16 75.0415 94.16C73.7615 94.16 72.6628 93.8507 71.7455 93.232C70.8495 92.6133 70.1668 91.792 69.6975 90.768C69.2282 89.744 68.9935 88.6347 68.9935 87.44C68.9935 85.8187 69.3028 84.3787 69.9215 83.12C70.5402 81.84 71.3935 80.848 72.4815 80.144C73.5695 79.4187 74.7748 79.056 76.0975 79.056C77.7188 79.056 79.0202 79.6213 80.0015 80.752C81.0042 81.8613 81.5908 83.2373 81.7615 84.88C82.7642 84.816 83.9588 84.6027 85.3455 84.24C85.5162 84.1973 85.6655 84.176 85.7935 84.176ZM75.2975 90.768C75.9802 90.768 76.5668 90.4907 77.0575 89.936C77.5695 89.3813 77.9108 88.5813 78.0815 87.536C77.4202 87.088 76.9082 86.5013 76.5455 85.776C76.2042 85.0507 76.0335 84.2827 76.0335 83.472C76.0335 83.1307 76.0655 82.7893 76.1295 82.448H75.9695C75.1162 82.448 74.4015 82.864 73.8255 83.696C73.2708 84.5067 72.9935 85.6587 72.9935 87.152C72.9935 88.3253 73.2175 89.2213 73.6655 89.84C74.1348 90.4587 74.6788 90.768 75.2975 90.768ZM86.183 94.16C85.3723 94.16 84.7963 93.7333 84.455 92.88C84.135 92.0267 83.975 90.6613 83.975 88.784C83.975 86.0107 84.3697 83.376 85.159 80.88C85.351 80.2613 85.6603 79.8133 86.087 79.536C86.535 79.2373 87.1537 79.088 87.943 79.088C88.3697 79.088 88.6683 79.1413 88.839 79.248C89.0097 79.3547 89.095 79.5573 89.095 79.856C89.095 80.1973 88.935 80.9653 88.615 82.16C88.4017 83.0133 88.231 83.76 88.103 84.4C87.975 85.04 87.8683 85.8293 87.783 86.768C88.487 84.9333 89.2763 83.44 90.151 82.288C91.0257 81.136 91.879 80.3147 92.711 79.824C93.5643 79.3333 94.343 79.088 95.047 79.088C96.4337 79.088 97.127 79.7813 97.127 81.168C97.127 82 96.8923 83.504 96.423 85.68C96.0177 87.536 95.815 88.7627 95.815 89.36C95.815 90.2133 96.1243 90.64 96.743 90.64C97.1697 90.64 97.671 90.384 98.247 89.872C98.8443 89.3387 99.6337 88.4853 100.615 87.312C100.871 87.0133 101.159 86.864 101.479 86.864C101.756 86.864 101.97 86.992 102.119 87.248C102.29 87.504 102.375 87.856 102.375 88.304C102.375 89.1573 102.172 89.8187 101.767 90.288C100.85 91.4187 99.8577 92.3467 98.791 93.072C97.7457 93.7973 96.551 94.16 95.207 94.16C94.119 94.16 93.2977 93.8507 92.743 93.232C92.1883 92.592 91.911 91.6747 91.911 90.48C91.911 89.8827 92.0603 88.816 92.359 87.28C92.6363 85.936 92.775 85.008 92.775 84.496C92.775 84.1547 92.6577 83.984 92.423 83.984C92.1457 83.984 91.751 84.3467 91.239 85.072C90.7483 85.776 90.2363 86.7147 89.703 87.888C89.191 89.0613 88.775 90.2987 88.455 91.6C88.2203 92.6027 87.943 93.2853 87.623 93.648C87.3243 93.9893 86.8443 94.16 86.183 94.16ZM103.978 76.976C103.082 76.976 102.41 76.7733 101.962 76.368C101.514 75.9413 101.29 75.3547 101.29 74.608C101.29 73.8613 101.578 73.2427 102.154 72.752C102.751 72.24 103.487 71.984 104.362 71.984C105.151 71.984 105.791 72.176 106.282 72.56C106.773 72.944 107.018 73.488 107.018 74.192C107.018 75.0453 106.741 75.728 106.186 76.24C105.631 76.7307 104.895 76.976 103.978 76.976ZM103.722 94.16C102.335 94.16 101.322 93.6693 100.682 92.688C100.063 91.7067 99.754 90.4053 99.754 88.784C99.754 87.824 99.8713 86.5973 100.106 85.104C100.362 83.5893 100.682 82.1813 101.066 80.88C101.258 80.1973 101.514 79.728 101.834 79.472C102.154 79.216 102.666 79.088 103.37 79.088C104.458 79.088 105.002 79.4507 105.002 80.176C105.002 80.7093 104.799 81.9467 104.394 83.888C103.882 86.2347 103.626 87.824 103.626 88.656C103.626 89.296 103.711 89.7867 103.882 90.128C104.053 90.4693 104.341 90.64 104.746 90.64C105.13 90.64 105.61 90.3733 106.186 89.84C106.762 89.3067 107.53 88.464 108.49 87.312C108.746 87.0133 109.034 86.864 109.354 86.864C109.631 86.864 109.845 86.992 109.994 87.248C110.165 87.504 110.25 87.856 110.25 88.304C110.25 89.1573 110.047 89.8187 109.642 90.288C107.53 92.8693 105.557 94.16 103.722 94.16ZM124.397 87.824C124.674 87.824 124.888 87.952 125.037 88.208C125.208 88.464 125.293 88.816 125.293 89.264C125.293 90.032 125.112 90.6933 124.749 91.248C123.49 93.1893 121.698 94.16 119.373 94.16C118.37 94.16 117.474 93.968 116.685 93.584C115.917 93.1787 115.288 92.6027 114.797 91.856C113.56 93.3707 112.12 94.128 110.477 94.128C109.304 94.128 108.376 93.7867 107.693 93.104C107.01 92.4213 106.669 91.5147 106.669 90.384C106.669 89.3173 106.914 88.4533 107.405 87.792C107.896 87.1307 108.589 86.8 109.485 86.8C110.253 86.8 110.637 87.088 110.637 87.664C110.637 87.8347 110.616 88.1333 110.573 88.56L110.477 89.776C110.477 90.416 110.754 90.736 111.309 90.736C111.714 90.736 112.098 90.5013 112.461 90.032C112.845 89.5413 113.154 88.88 113.389 88.048C113.645 87.216 113.773 86.2987 113.773 85.296C113.773 84.528 113.677 83.888 113.485 83.376C113.293 82.8427 113.058 82.576 112.781 82.576C112.546 82.576 112.376 82.64 112.269 82.768C112.162 82.8747 112.056 83.0667 111.949 83.344C111.821 83.6853 111.65 83.9627 111.437 84.176C111.224 84.368 110.85 84.464 110.317 84.464C109.848 84.464 109.474 84.304 109.197 83.984C108.92 83.6427 108.781 83.1307 108.781 82.448C108.781 81.36 109.112 80.5067 109.773 79.888C110.434 79.2693 111.288 78.96 112.333 78.96C113.229 78.96 114.04 79.184 114.765 79.632C115.49 80.0587 116.045 80.688 116.429 81.52C117.069 80.6667 117.784 80.0267 118.573 79.6C119.384 79.1733 120.173 78.96 120.941 78.96C121.773 78.96 122.402 79.152 122.829 79.536C123.277 79.92 123.501 80.5387 123.501 81.392C123.501 82.352 123.32 83.1093 122.957 83.664C122.594 84.1973 122.157 84.464 121.645 84.464C121.176 84.464 120.856 84.368 120.685 84.176C120.514 83.984 120.386 83.7067 120.301 83.344C120.258 83.088 120.194 82.896 120.109 82.768C120.024 82.64 119.874 82.576 119.661 82.576C119.405 82.576 119.128 82.8213 118.829 83.312C118.552 83.7813 118.306 84.4107 118.093 85.2C117.901 85.9893 117.805 86.8107 117.805 87.664C117.805 88.624 118.018 89.392 118.445 89.968C118.893 90.544 119.426 90.832 120.045 90.832C121.218 90.832 122.381 89.9893 123.533 88.304C123.746 87.984 124.034 87.824 124.397 87.824Z" fill="white"/>
</svg>
